<svg width="127" height="127" viewBox="0 0 127 127" fill="none" xmlns="http://www.w3.org/2000/svg">
<path d="M127 63.5C127 98.5701 98.5701 127 63.5 127C28.4299 127 0 98.5701 0 63.5C0 28.4299 28.4299 0 63.5 0C98.5701 0 127 28.4299 127 63.5ZM15.875 63.5C15.875 89.8026 37.1974 111.125 63.5 111.125C89.8026 111.125 111.125 89.8026 111.125 63.5C111.125 37.1974 89.8026 15.875 63.5 15.875C37.1974 15.875 15.875 37.1974 15.875 63.5Z" fill="#2242F9" style="fill:#2242F9;fill:color(display-p3 0.1333 0.2588 0.9765);fill-opacity:1;"/>
<path d="M63.5 0C76.9099 1.59911e-07 89.9755 4.24529 100.824 12.1274C111.673 20.0096 119.748 31.1239 123.892 43.8774L108.794 48.7831C105.686 39.2179 99.6299 30.8822 91.4933 24.9706C83.3567 19.059 73.5574 15.875 63.5 15.875L63.5 0Z" fill="#FAA53D" style="fill:#FAA53D;fill:color(display-p3 0.9804 0.6471 0.2392);fill-opacity:1;"/>
</svg>
