<svg xmlns="http://www.w3.org/2000/svg" width="1042" height="394" viewBox="0 0 1042 394" fill="none">
  <path d="M137.051 409.775C76.5396 343.752 32.9181 262.084 13.1022 171.667M420.192 569C388.273 562.769 357.419 553.488 327.895 541.689M848.161 463.998C792.303 508.941 727.005 542.616 655.72 561.442M1041 92.5169C1034.22 201.23 993.921 300.928 930.217 381.402M777.542 -392.05C811.057 -373.224 842.176 -350.686 870.504 -325.23C953.623 -250.324 1012.27 -149.168 1033.42 -34.8875M301.43 -410.478C334.81 -425.989 370.186 -438.187 407.026 -446.407C443.864 -454.627 482.167 -459 521.532 -459M0.999978 59.9067C0.999975 -11.6855 15.6291 -79.9633 41.9615 -142.141M409.419 534.662C274.699 503.109 161.522 416.138 95.2914 299.205M966.789 -142.011C994.985 -80.4958 1010.54 -12.0864 1010.54 60.0361C1010.54 232.652 920.509 384.319 784.856 471.025M236.264 -336.104C316.591 -393.642 415.138 -427.582 521.532 -427.582C670.616 -427.582 804.273 -361.027 893.909 -256.161M32.386 59.9067C32.386 -41.1172 63.2404 -134.85 115.905 -212.672M521.532 516.235C290.258 516.235 99.0154 345.21 68.161 123.145M979.292 59.9025C979.292 160.262 946.842 252.935 891.782 328.238M521.532 -396.294C599.997 -396.294 673.941 -376.54 738.443 -341.937M68.161 -2.80555C89.573 -158.583 190.115 -289.437 327.895 -353.603M926.093 194.073C869.838 363.11 709.981 484.947 521.532 484.947C411.812 484.947 311.803 443.584 236.264 375.704M682.451 -333.715C838.054 -270.477 947.772 -118.012 947.772 59.9066M95.2914 59.9067C95.2914 -174.755 286.136 -365.004 521.532 -365.004M521.532 453.524C303.425 453.524 126.678 277.329 126.678 59.9025M875.557 -114.434C901.623 -61.9342 916.387 -2.67196 916.387 59.9046C916.387 198.712 844.305 320.816 735.384 390.949M213.787 -186.688C286.136 -276.312 397.183 -333.717 521.532 -333.717C622.738 -333.717 715.035 -295.801 784.856 -233.356M521.532 -302.427C722.217 -302.427 884.999 -140.153 884.999 59.9066M169.102 148.73C161.921 120.359 158.064 90.5288 158.064 59.9025C158.064 -57.6927 214.319 -162.296 301.43 -228.452M784.856 309.547C718.627 378.884 625.133 422.237 521.532 422.237M853.614 59.9046C853.614 191.421 776.612 305.04 665.163 358.467M261.398 -145.723C322.176 -222.087 416.202 -271.009 521.532 -271.009M521.532 390.949C338.136 390.949 189.45 242.729 189.45 59.9046M265.92 217.806C237.328 171.934 220.968 117.843 220.968 60.0382C220.968 -70.0205 304.089 -180.722 420.192 -222.218C451.844 -233.487 486.023 -239.719 521.532 -239.719C555.179 -239.719 587.629 -234.149 617.818 -223.941C736.58 -184.036 822.094 -72.0087 822.094 59.9066M713.307 290.722C661.307 333.678 594.412 359.53 521.532 359.53M269.512 -34.7559C307.947 -136.31 406.227 -208.431 521.532 -208.431M738.443 -98.9238C771.291 -54.512 790.709 0.508669 790.709 59.9025C790.709 208.124 670.217 328.238 521.532 328.238C396.919 328.238 291.987 243.787 261.398 129.239M591.485 286.612C569.41 293.374 545.87 297.085 521.532 297.085C390.268 297.085 283.741 191.024 283.741 60.0382M371.915 -124.243C412.745 -157.255 464.876 -177.142 521.532 -177.142C652.795 -177.142 759.321 -71.0793 759.321 59.9066M727.936 59.9046C727.936 173.521 635.506 265.663 521.532 265.663C484.692 265.663 450.115 255.986 420.192 239.147C399.312 227.348 380.693 212.102 365.133 194.071M315.129 59.9066C315.129 -53.7123 407.558 -145.854 521.532 -145.854C549.46 -145.854 576.059 -140.284 600.263 -130.342M365.133 -18.1824C393.859 -75.1893 453.175 -114.432 521.532 -114.432C618.084 -114.432 696.416 -36.3452 696.416 59.9066M653.859 174.054C621.808 210.91 574.462 234.375 521.532 234.375C444.13 234.375 378.432 184.262 355.424 114.792M521.532 202.955C477.378 202.955 437.879 183.069 411.548 151.781M665.031 59.9046C665.031 98.3519 649.869 133.22 625.133 158.807M521.532 -83.148C550.124 -83.148 576.723 -74.7946 599.066 -60.4765M378.034 59.9066C378.034 21.0605 393.593 -14.0725 418.73 -39.9247M638.034 68.5234C636.437 114.395 607.178 152.842 566.883 168.618M530.042 -47.0878C561.828 -45.8933 590.156 -31.7089 609.706 -9.69937M460.09 154.962C430.964 133.884 412.611 99.1475 414.073 60.5687C414.74 42.4039 419.66 25.5673 427.906 10.7188M597.203 87.745C585.9 118.503 556.243 140.377 521.532 140.377C476.98 140.377 440.804 104.316 440.804 59.9025C440.804 26.6261 461.152 -2.00993 490.013 -14.2082M546.4 -16.5911C569.808 -9.03325 588.559 8.99586 597.203 31.9326M521.532 10.8504C548.796 10.8504 570.738 32.8579 570.738 59.9046C570.738 87.0829 548.662 108.957 521.532 108.957C507.966 108.957 495.597 103.523 486.687 94.6387C477.777 85.7568 472.324 73.4269 472.324 59.9046C472.324 32.8579 494.269 10.8504 521.532 10.8504Z" stroke="url(#paint0_linear_4238_30475)" style="" stroke-width="0.8" stroke-miterlimit="10" stroke-linecap="round" stroke-linejoin="round"/>
  <defs>
    <linearGradient id="paint0_linear_4238_30475" x1="1041" y1="-459" x2="1041" y2="270" gradientUnits="userSpaceOnUse">
      <stop stop-color="#E6E9FF" style="stop-color:#E6E9FF;stop-color:color(display-p3 0.9000 0.9149 1.0000);stop-opacity:1;"/>
      <stop offset="1" stop-color="#E6E9FF" stop-opacity="0" style="stop-color:none;stop-opacity:0;"/>
    </linearGradient>
  </defs>
</svg>