<svg xmlns="http://www.w3.org/2000/svg" width="1042" height="241" viewBox="0 0 1042 241" fill="none">
  <path d="M137.051 595.775C76.5396 529.752 32.9181 448.084 13.1022 357.667M420.192 755C388.273 748.769 357.419 739.488 327.895 727.689M848.161 649.998C792.303 694.941 727.005 728.616 655.72 747.442M1041 278.517C1034.22 387.23 993.921 486.928 930.217 567.402M777.542 -206.05C811.057 -187.224 842.176 -164.686 870.504 -139.23C953.623 -64.3239 1012.27 36.8316 1033.42 151.113M301.43 -224.478C334.81 -239.989 370.186 -252.187 407.026 -260.407C443.864 -268.627 482.167 -273 521.532 -273M0.999978 245.907C0.999975 174.315 15.6291 106.037 41.9615 43.859M409.419 720.662C274.699 689.109 161.522 602.138 95.2914 485.205M966.789 43.9886C994.985 105.504 1010.54 173.914 1010.54 246.036C1010.54 418.652 920.509 570.319 784.856 657.025M236.264 -150.104C316.591 -207.642 415.138 -241.582 521.532 -241.582C670.616 -241.582 804.273 -175.027 893.909 -70.1608M32.386 245.907C32.386 144.883 63.2404 51.1496 115.905 -26.6722M521.532 702.235C290.258 702.235 99.0154 531.21 68.161 309.145M979.292 245.903C979.292 346.262 946.842 438.935 891.782 514.238M521.532 -210.294C599.997 -210.294 673.941 -190.54 738.443 -155.937M68.161 183.194C89.573 27.4172 190.115 -103.437 327.895 -167.603M926.093 380.073C869.838 549.11 709.981 670.947 521.532 670.947C411.812 670.947 311.803 629.584 236.264 561.704M682.451 -147.715C838.054 -84.4767 947.772 67.9882 947.772 245.907M95.2914 245.907C95.2914 11.2446 286.136 -179.004 521.532 -179.004M521.532 639.524C303.425 639.524 126.678 463.329 126.678 245.903M875.557 71.5657C901.623 124.066 916.387 183.328 916.387 245.905C916.387 384.712 844.305 506.816 735.384 576.949M213.787 -0.688438C286.136 -90.3117 397.183 -147.717 521.532 -147.717C622.738 -147.717 715.035 -109.801 784.856 -47.3557M521.532 -116.427C722.217 -116.427 884.999 45.8471 884.999 245.907M169.102 334.73C161.921 306.359 158.064 276.529 158.064 245.903C158.064 128.307 214.319 23.704 301.43 -42.452M784.856 495.547C718.627 564.884 625.133 608.237 521.532 608.237M853.614 245.905C853.614 377.421 776.612 491.04 665.163 544.467M261.398 40.2774C322.176 -36.0867 416.202 -85.0092 521.532 -85.0092M521.532 576.949C338.136 576.949 189.45 428.729 189.45 245.905M265.92 403.806C237.328 357.934 220.968 303.843 220.968 246.038C220.968 115.98 304.089 5.2781 420.192 -36.2182C451.844 -47.4872 486.023 -53.719 521.532 -53.719C555.179 -53.719 587.629 -48.1492 617.818 -37.9412C736.58 1.96383 822.094 113.991 822.094 245.907M713.307 476.722C661.307 519.678 594.412 545.53 521.532 545.53M269.512 151.244C307.947 49.6898 406.227 -22.4307 521.532 -22.4307M738.443 87.0762C771.291 131.488 790.709 186.509 790.709 245.903C790.709 394.124 670.217 514.238 521.532 514.238C396.919 514.238 291.987 429.787 261.398 315.239M591.485 472.612C569.41 479.374 545.87 483.085 521.532 483.085C390.268 483.085 283.741 377.024 283.741 246.038M371.915 61.7566C412.745 28.7454 464.876 8.8576 521.532 8.8576C652.795 8.85759 759.321 114.921 759.321 245.907M727.936 245.905C727.936 359.521 635.506 451.663 521.532 451.663C484.692 451.663 450.115 441.986 420.192 425.147C399.312 413.348 380.693 398.102 365.133 380.071M315.129 245.907C315.129 132.288 407.558 40.1459 521.532 40.1459C549.46 40.1458 576.059 45.7156 600.263 55.6584M365.133 167.818C393.859 110.811 453.175 71.5678 521.532 71.5678C618.084 71.5678 696.416 149.655 696.416 245.907M653.859 360.054C621.808 396.91 574.462 420.375 521.532 420.375C444.13 420.375 378.432 370.262 355.424 300.792M521.532 388.955C477.378 388.955 437.879 369.069 411.548 337.781M665.031 245.905C665.031 284.352 649.869 319.22 625.133 344.807M521.532 102.852C550.124 102.852 576.723 111.205 599.066 125.523M378.034 245.907C378.034 207.061 393.593 171.927 418.73 146.075M638.034 254.523C636.437 300.395 607.178 338.842 566.883 354.618M530.042 138.912C561.828 140.107 590.156 154.291 609.706 176.301M460.09 340.962C430.964 319.884 412.611 285.148 414.073 246.569C414.74 228.404 419.66 211.567 427.906 196.719M597.203 273.745C585.9 304.503 556.243 326.377 521.532 326.377C476.98 326.377 440.804 290.316 440.804 245.903C440.804 212.626 461.152 183.99 490.013 171.792M546.4 169.409C569.808 176.967 588.559 194.996 597.203 217.933M521.532 196.85C548.796 196.85 570.738 218.858 570.738 245.905C570.738 273.083 548.662 294.957 521.532 294.957C507.966 294.957 495.597 289.523 486.687 280.639C477.777 271.757 472.324 259.427 472.324 245.905C472.324 218.858 494.269 196.85 521.532 196.85Z" stroke="#E5EAFF" style="stroke:#E5EAFF;stroke:color(display-p3 0.8980 0.9176 1.0000);stroke-opacity:1;" stroke-width="0.8" stroke-miterlimit="10" stroke-linecap="round" stroke-linejoin="round"/>
</svg>